<svg class="svg-icon" style="width: 1em;height: 1em;vertical-align: middle;fill: currentColor;overflow: hidden;" viewBox="0 0 1024 1024" version="1.1" xmlns="http://www.w3.org/2000/svg"><path d="M809.6531848 448.02391861l106.73468048-67.88558696-105.60843219-47.0305754 86.61755574-111.01960217-320.61829372-92.4300326-68.26100306 90.82480513-107.0324243-76.63666567-303.14202706 80.89569659 109.051904 107.95154647-101.2587836 105.78966755 101.94488888 55.9499441v269.8594481l298.79237848 137.99777975v1.7994082l1.9418074-0.8932314 1.9418074 0.8932314v-1.7994082l298.88299616-137.99777975V448.02391861z m-2.97743804-2.70558498l-148.49648513 94.37184-144.53519802-67.91147773 294.08025915-135.78411931 100.46911527 44.73924266-101.51769127 64.58451438z m-297.75674785 24.2596472l-293.74367921-136.70324147 293.73073383-107.64085728 293.74367922 108.84477787-293.73073384 135.49932088z m69.34841522-335.45370231l312.52742952 90.0998637-83.74368079 107.33016809-295.0252721-109.31081164 66.24152337-88.11922015z m-177.57181472 13.94217718l104.10676779 74.5265683-294.19676759 107.80914725-104.71520079-103.6536794 294.80520059-78.68203615zM209.73825897 335.87806815L505.00949333 472.25767506l-137.57058213 105.18123457-254.98520335-139.92664178 97.28455112-101.6341997z m2.2395512 425.91603674V496.55615842l154.71026885 84.89581985 1.1133029 0.60843298 139.09813728-106.35926439v422.30427497L211.97781017 761.79410489z m298.79237847 136.21131694V474.73024317l147.68092603 69.38725135 147.30550992-93.6210078v311.29761817L510.77018864 898.00542183z"  /></svg>